# xmcd
# Track frame offsets:
# 150
# 14764
# 32727
# 53005
# 72970
# 87585
# 112435
# 127908
#
# Disc length: 2062 seconds
# Revision: 0
# Processed by: cddbd v1.5.2PL0 Copyright (c) Steve Scherf et al.
# Submitted via: VisiTrax 2.11.2.271 - For more info visit www.synapsa.com
#
DISCID=71080c08
DTITLE=Watson, Billy - Secret 8 Blues for the Modern Frontier
DYEAR=2010
DGENRE=Blues
TTITLE0=Billy Watson - Oh My Darlin'
TTITLE1=Billy Watson - I Told You So
TTITLE2=Billy Watson - Ice or Coal
TTITLE3=Billy Watson - Christine
TTITLE4=Billy Watson - Awp' Sorry
TTITLE5=Billy Watson - She's Slidin
TTITLE6=Billy Watson - Wolf Pack
TTITLE7=Billy Watson - Retrograde Boogie
EXTD=Billy Watson and His International Silver String Submarine Band
EXTT0=
EXTT1=
EXTT2=
EXTT3=
EXTT4=
EXTT5=
EXTT6=
EXTT7=
PLAYORDER=
